<svg width="44" height="44" viewBox="0 0 44 44" fill="none" xmlns="http://www.w3.org/2000/svg">
<path d="M39.9768 18.4094H38.5V18.3334H22V25.6667H32.3611C30.8495 29.9356 26.7878 33 22 33C15.9253 33 11 28.0748 11 22C11 15.9253 15.9253 11 22 11C24.8041 11 27.3552 12.0579 29.2976 13.7858L34.4832 8.60019C31.2089 5.5486 26.829 3.66669 22 3.66669C11.8754 3.66669 3.66669 11.8754 3.66669 22C3.66669 32.1246 11.8754 40.3334 22 40.3334C32.1246 40.3334 40.3334 32.1246 40.3334 22C40.3334 20.7708 40.2069 19.5709 39.9768 18.4094Z" fill="#FFC107"/>
<path d="M5.78052 13.4668L11.8039 17.8842C13.4338 13.849 17.3809 11 22 11C24.8041 11 27.3552 12.0579 29.2976 13.7858L34.4832 8.60019C31.2089 5.5486 26.829 3.66669 22 3.66669C14.9582 3.66669 8.85135 7.64227 5.78052 13.4668Z" fill="#FF3D00"/>
<path d="M22 40.3334C26.7355 40.3334 31.0384 38.5211 34.2916 35.574L28.6174 30.7725C26.7149 32.2194 24.3902 33.0019 22 33C17.2315 33 13.1826 29.9594 11.6573 25.7162L5.67877 30.3224C8.71294 36.2597 14.8748 40.3334 22 40.3334Z" fill="#4CAF50"/>
<path d="M39.9768 18.4094H38.5V18.3333H22V25.6666H32.3611C31.638 27.6984 30.3356 29.4737 28.6147 30.7734L28.6174 30.7716L34.2916 35.5731C33.8901 35.9379 40.3333 31.1666 40.3333 22C40.3333 20.7707 40.2068 19.5708 39.9768 18.4094Z" fill="#1976D2"/>
</svg>
