<svg width="512" height="512" viewBox="0 0 512 512" fill="none" xmlns="http://www.w3.org/2000/svg">
<g clip-path="url(#clip0_89912_280)">
<path d="M-0.735175 310.903C-0.735175 310.903 143.651 418.159 247.196 240.842C350.74 63.5257 494.051 313.274 494.051 313.274" stroke="#FF7D3B" stroke-width="2"/>
<path opacity="0.256557" d="M5.29126 376C5.29126 376 95.4241 453 196.854 247.5C298.283 42 526.283 261 526.283 261" stroke="white" stroke-width="2"/>
<rect x="277.13" y="11.3797" width="47.455" height="10.7593" transform="rotate(30.4707 277.13 11.3797)" fill="#3B1F7C"/>
<ellipse cx="206.545" cy="419.183" rx="32.278" ry="57.3832" transform="rotate(22.0105 206.545 419.183)" fill="#3B1F7C"/>
<path d="M150.631 226.567L110.283 201.701L167.667 169.183L205.324 195.006L150.631 226.567Z" fill="#3B1F7C"/>
<path d="M220.248 376.323L178.411 353.207L235.426 318.846L274.57 343.01L220.248 376.323Z" fill="#3B1F7C"/>
<path d="M150.056 79.9366L135.389 101.938C127.63 118.052 121.151 134.751 116.012 151.881L115.663 153.044L111.18 179.046L110.355 202.148C110.323 203.051 111.269 203.659 112.077 203.255L163.9 173.769C164.018 173.702 164.152 173.667 164.288 173.667C164.682 173.667 165.015 173.374 165.066 172.983L167.449 154.711C167.594 153.602 167.824 152.505 168.137 151.431L170.042 144.901C172.627 136.036 176.549 127.617 181.671 119.933L185.532 114.141C190.882 106.118 198.039 99.4607 206.429 94.7064L212.643 91.1851C217.837 88.2421 223.705 86.6951 229.674 86.6951H235.809C239.301 86.6951 242.699 87.8277 245.493 89.9229C249.556 92.9708 251.948 97.7543 251.948 102.834V116.958C251.948 122.438 250.933 127.871 248.955 132.982L244.427 144.679C242.272 150.247 239.673 155.633 236.655 160.785L222.354 185.201C210.424 205.569 200.229 226.905 191.875 248.982C185.332 266.828 181.3 285.496 179.896 304.452L178.426 324.297V352.681C178.426 353.125 178.963 353.348 179.278 353.034C179.308 353.004 179.341 352.978 179.377 352.957L233.774 320.854C233.935 320.759 234.083 320.644 234.215 320.512C234.659 320.068 234.894 319.456 234.861 318.829L234.016 302.779C234.612 291.446 236.252 280.192 238.915 269.16L241.189 259.741C248.344 238.872 257.547 218.761 268.664 199.704L283.33 174.563L294.67 147.346C299.054 136.825 302.388 125.897 304.623 114.72L306.093 107.368C308.242 96.6261 308.897 85.6394 308.04 74.7186L307.083 62.5117C306.204 51.3058 302.616 40.4812 296.627 30.9693L294.617 27.7774C291.893 23.4502 288.475 19.6008 284.5 16.3835L282.959 15.1354C275.657 9.22486 266.548 6 257.155 6C253.698 6 250.254 6.43712 246.907 7.30097L239.748 9.14842C229.419 11.814 219.587 16.1273 210.631 21.9224L203.168 26.7513C196.844 30.8438 190.828 35.3949 185.169 40.3678L183.072 42.2106C170.465 53.2892 159.365 65.9726 150.056 79.9366Z" fill="#3B1F7C"/>
<path d="M191.3 103.249L176.633 125.249C168.874 141.363 162.395 158.063 157.256 175.193L156.907 176.356L152.424 202.358L151.599 225.46C151.567 226.362 152.513 226.971 153.321 226.567L205.144 197.081C205.262 197.014 205.396 196.978 205.532 196.978C205.926 196.978 206.259 196.686 206.31 196.295L208.693 178.023C208.838 176.913 209.068 175.817 209.381 174.743L211.286 168.212C213.872 159.348 217.793 150.929 222.915 143.245L226.777 137.453C232.126 129.429 239.283 122.773 247.673 118.018L253.887 114.497C259.081 111.554 264.949 110.007 270.918 110.007H277.053C280.545 110.007 283.943 111.14 286.737 113.235C290.801 116.283 293.192 121.066 293.192 126.146V140.27C293.192 145.75 292.178 151.183 290.199 156.294L285.671 167.99C283.516 173.559 280.917 178.945 277.899 184.097L263.599 208.513C251.669 228.881 241.473 250.217 233.119 272.294C226.576 290.139 222.544 308.808 221.14 327.763L219.67 347.609V375.993C219.67 376.437 220.208 376.66 220.522 376.346C220.552 376.316 220.585 376.29 220.621 376.269L275.018 344.166C275.179 344.071 275.327 343.956 275.459 343.824C275.903 343.38 276.138 342.768 276.105 342.141L275.26 326.091C275.857 314.758 277.497 303.504 280.159 292.472L282.433 283.053C289.588 262.183 298.792 242.073 309.908 223.016L324.574 197.875L335.914 170.658C340.298 160.137 343.632 149.208 345.867 138.032L347.338 130.68C349.486 119.938 350.141 108.951 349.285 98.0305L348.327 85.8236C347.448 74.6177 343.86 63.7931 337.871 54.2812L335.861 51.0893C333.137 46.7621 329.719 42.9128 325.744 39.6954L324.203 38.4473C316.901 32.5368 307.792 29.3119 298.399 29.3119C294.942 29.3119 291.498 29.749 288.151 30.6129L280.992 32.4603C270.663 35.1259 260.831 39.4392 251.875 45.2343L244.413 50.0632C238.088 54.1557 232.072 58.7068 226.413 63.6797L224.316 65.5226C211.709 76.6011 200.609 89.2845 191.3 103.249Z" fill="#8257E5"/>
<path d="M234.494 370.494L268.422 387.719L222.36 492.86L183.161 471.6L234.494 370.494Z" fill="#3B1F7C"/>
<ellipse cx="245.996" cy="440.702" rx="32.278" ry="57.3832" transform="rotate(22.0105 245.996 440.702)" fill="#8257E5"/>
<path d="M294.225 269.781L301.361 275.441L297.529 278.676L290.516 273.016L294.225 269.781ZM301.66 260.693V261.73C301.66 263.688 301.385 265.445 300.834 267.004C300.295 268.551 299.521 269.875 298.514 270.977C297.518 272.066 296.34 272.904 294.98 273.49C293.621 274.064 292.121 274.352 290.48 274.352C288.828 274.352 287.316 274.064 285.945 273.49C284.586 272.904 283.402 272.066 282.395 270.977C281.398 269.875 280.625 268.551 280.074 267.004C279.535 265.445 279.266 263.688 279.266 261.73V260.693C279.266 258.736 279.535 256.979 280.074 255.42C280.625 253.861 281.393 252.537 282.377 251.447C283.373 250.346 284.551 249.508 285.91 248.934C287.281 248.348 288.793 248.055 290.445 248.055C292.086 248.055 293.586 248.348 294.945 248.934C296.316 249.508 297.5 250.346 298.496 251.447C299.504 252.537 300.283 253.861 300.834 255.42C301.385 256.979 301.66 258.736 301.66 260.693ZM295.385 261.73V260.658C295.385 259.393 295.273 258.279 295.051 257.318C294.84 256.346 294.523 255.531 294.102 254.875C293.68 254.219 293.158 253.727 292.537 253.398C291.928 253.059 291.23 252.889 290.445 252.889C289.625 252.889 288.91 253.059 288.301 253.398C287.691 253.727 287.182 254.219 286.771 254.875C286.361 255.531 286.051 256.346 285.84 257.318C285.641 258.279 285.541 259.393 285.541 260.658V261.73C285.541 262.984 285.641 264.098 285.84 265.07C286.051 266.031 286.361 266.846 286.771 267.514C287.193 268.182 287.709 268.686 288.318 269.025C288.939 269.365 289.66 269.535 290.48 269.535C291.266 269.535 291.963 269.365 292.572 269.025C293.182 268.686 293.691 268.182 294.102 267.514C294.523 266.846 294.84 266.031 295.051 265.07C295.273 264.098 295.385 262.984 295.385 261.73ZM318.693 248.406H324.863V265.123C324.863 267.115 324.447 268.803 323.615 270.186C322.783 271.557 321.617 272.594 320.117 273.297C318.617 274 316.854 274.352 314.826 274.352C312.822 274.352 311.059 274 309.535 273.297C308.023 272.594 306.84 271.557 305.984 270.186C305.141 268.803 304.719 267.115 304.719 265.123V248.406H310.906V265.123C310.906 266.178 311.059 267.039 311.363 267.707C311.668 268.363 312.113 268.844 312.699 269.148C313.285 269.453 313.994 269.605 314.826 269.605C315.67 269.605 316.379 269.453 316.953 269.148C317.527 268.844 317.961 268.363 318.254 267.707C318.547 267.039 318.693 266.178 318.693 265.123V248.406ZM335.305 248.406V274H329.152V248.406H335.305ZM358.807 269.254V274H340.279V269.254H358.807ZM358.684 251.57L343.338 274H338.873V270.748L354.395 248.406H358.684V251.57ZM356.697 248.406V253.17H338.785V248.406H356.697Z" fill="white"/>
<path d="M263 270.596L267.119 284.148L267.658 285.92H269.511H283.286L272.001 294.685L270.643 295.74L271.143 297.386L275.366 311.28L264.533 302.866L263 301.676L261.467 302.866L250.634 311.28L254.857 297.386L255.357 295.74L253.999 294.685L242.714 285.92H256.489H258.342L258.881 284.148L263 270.596Z" fill="white" stroke="white" stroke-width="5"/>
<path d="M147.5 125L147.597 222.513L157.169 125.545L147.789 222.535L166.732 127.174L147.979 222.578L176.084 129.87L148.163 222.642L185.123 133.602L148.34 222.727L193.75 138.33L148.508 222.831L201.87 144.003L148.664 222.953L209.395 150.557L148.808 223.093L216.241 157.922L148.938 223.248L222.334 166.015L149.051 223.416L227.607 174.75L149.148 223.597L232.003 184.03L149.227 223.787L235.473 193.753L149.287 223.985L237.979 203.813L149.327 224.189L239.493 214.099L149.348 224.396L240 224.5L149.348 224.604L239.493 234.901L149.327 224.811L237.979 245.187L149.287 225.015L235.473 255.247L149.227 225.213L232.003 264.97L149.148 225.403L227.607 274.25L149.051 225.584L222.334 282.985L148.938 225.752L216.241 291.078L148.808 225.907L209.395 298.443L148.664 226.047L201.87 304.997L148.508 226.169L193.75 310.67L148.34 226.273L185.123 315.398L148.163 226.358L176.084 319.13L147.979 226.422L166.732 321.826L147.789 226.465L157.169 323.455L147.597 226.487L147.5 324L147.403 226.487L137.831 323.455L147.211 226.465L128.268 321.826L147.021 226.422L118.916 319.13L146.837 226.358L109.877 315.398L146.66 226.273L101.25 310.67L146.492 226.169L93.1299 304.997L146.336 226.047L85.6054 298.443L146.192 225.907L78.7591 291.078L146.062 225.752L72.6659 282.985L145.949 225.584L67.3926 274.25L145.852 225.403L62.997 264.97L145.773 225.213L59.5273 255.247L145.713 225.015L57.0213 245.187L145.673 224.811L55.5067 234.901L145.652 224.604L55 224.5L145.652 224.396L55.5067 214.099L145.673 224.189L57.0213 203.813L145.713 223.985L59.5273 193.753L145.773 223.787L62.997 184.03L145.852 223.597L67.3926 174.75L145.949 223.416L72.6659 166.015L146.062 223.248L78.7591 157.922L146.192 223.093L85.6054 150.557L146.336 222.953L93.1299 144.003L146.492 222.831L101.25 138.33L146.66 222.727L109.877 133.602L146.837 222.642L118.916 129.87L147.021 222.578L128.268 127.174L147.211 222.535L137.831 125.545L147.403 222.513L147.5 125Z" fill="white"/>
</g>
<defs>
<clipPath id="clip0_89912_280">
<rect width="512" height="512" fill="white"/>
</clipPath>
</defs>
</svg>
