<svg width="258" height="249" viewBox="0 0 258 249" fill="none" xmlns="http://www.w3.org/2000/svg">
<g clip-path="url(#clip0_50369_8)">
<path d="M128 57.5938C75.1446 57.5938 32.2969 100.442 32.2969 153.297C32.2969 206.152 75.1446 249 128 249C180.855 249 223.703 206.152 223.703 153.297C223.703 100.441 180.855 57.5938 128 57.5938Z" fill="url(#paint0_linear_50369_8)"/>
<path d="M134.836 190.326V169.382C134.029 169.58 133.187 169.687 132.319 169.687H123.681C122.813 169.687 121.971 169.58 121.164 169.382V190.326H134.836Z" fill="#FCC24E"/>
<path d="M127.219 190.326V169.687H123.681C122.813 169.687 121.971 169.58 121.164 169.382V190.326H127.219Z" fill="#F2A635"/>
<path d="M128 160.329C122.764 160.329 117.75 159.365 113.123 157.61V159.536C113.123 165.367 117.85 170.094 123.681 170.094H132.319C138.15 170.094 142.877 165.367 142.877 159.536V157.61C138.249 159.365 133.235 160.329 128 160.329Z" fill="#FFE67C"/>
<path d="M125.224 160.236C120.991 159.958 116.926 159.053 113.123 157.61V159.536C113.123 165.367 117.85 170.094 123.681 170.094H132.32C132.905 170.094 133.479 170.044 134.038 169.952C129.25 169.168 125.547 165.164 125.224 160.236Z" fill="#FFBA30"/>
<path d="M143.234 198.219V191.578C143.234 190.504 142.355 189.625 141.281 189.625H114.719C113.645 189.625 112.766 190.504 112.766 191.578V198.219H143.234Z" fill="#FCC24E"/>
<path d="M124.484 198.219V191.578C124.484 190.504 125.363 189.625 126.438 189.625H114.719C113.645 189.625 112.766 190.504 112.766 191.578V198.219H124.484Z" fill="#F2A635"/>
<path d="M164.914 231.422V199.391C164.914 198.316 164.035 197.438 162.961 197.438H93.0391C91.9648 197.438 91.0859 198.316 91.0859 199.391V231.422H164.914Z" fill="#D3D3EB"/>
<path d="M97.1406 231.422V199.391C97.1406 198.316 98.0195 197.438 99.0938 197.438H93.0391C91.9648 197.438 91.0859 198.316 91.0859 199.391V231.422H97.1406Z" fill="#C0C0D6"/>
<path d="M154.18 222.828C154.18 223.902 153.302 224.781 152.227 224.781H103.773C102.698 224.781 101.82 223.902 101.82 222.828V206.422C101.82 205.348 102.698 204.469 103.773 204.469H152.227C153.302 204.469 154.18 205.348 154.18 206.422V222.828Z" fill="url(#paint1_linear_50369_8)"/>
<path d="M109.623 222.828V206.422C109.623 205.348 110.502 204.469 111.576 204.469H103.773C102.698 204.469 101.82 205.348 101.82 206.422V222.828C101.82 223.902 102.698 224.781 103.773 224.781H111.576C110.502 224.781 109.623 223.902 109.623 222.828Z" fill="#8257E5"/>
<path d="M173.117 231.031H82.8828C81.8086 231.031 80.9297 231.91 80.9297 232.984V236.637C94.8289 244.504 110.889 249 128 249C145.111 249 161.171 244.504 175.07 236.637V232.984C175.07 231.91 174.191 231.031 173.117 231.031Z" fill="#C0C0D6"/>
<path d="M92.8438 232.984C92.8438 231.91 93.7227 231.031 94.7969 231.031H82.8828C81.8086 231.031 80.9297 231.91 80.9297 232.984V236.637C84.7457 238.797 88.725 240.701 92.8438 242.329V232.984Z" fill="#AEAEC2"/>
<path d="M193.724 58.9965H178.586V62.2813C178.586 63.143 177.885 63.8438 177.023 63.8438H170.468C170.252 63.8438 170.078 64.0188 170.078 64.2344V68.7621H190.554C189.718 85.8727 181.982 101.2 170.078 112.017V118.252C170.078 120.521 169.894 122.747 169.547 124.92C188.189 111.809 200.395 90.1379 200.395 65.6672C200.395 61.9887 197.403 58.9965 193.724 58.9965Z" fill="#FCC24E"/>
<path d="M85.9227 118.252V112.017C74.0184 101.2 66.2821 85.8727 65.4461 68.7621H85.9227V64.2344C85.9227 64.0188 85.7477 63.8438 85.5321 63.8438H78.9766C78.1149 63.8438 77.4141 63.143 77.4141 62.2813V58.9965H62.2754C58.5973 58.9965 55.6047 61.9891 55.6047 65.6672C55.6047 90.1383 67.8114 111.809 86.4528 124.92C86.1055 122.747 85.9227 120.521 85.9227 118.252Z" fill="#FFE67C"/>
<path d="M85.532 63.8438V118.252C85.532 141.706 104.546 160.72 128 160.72C151.454 160.72 170.468 141.706 170.468 118.252V63.8438H85.532Z" fill="#FCC24E"/>
<path d="M94.2614 118.242V63.4445H85.7778V118.242C85.7778 141.696 104.792 160.71 128.246 160.71C129.668 160.71 131.072 160.635 132.458 160.497C111.009 158.355 94.2614 140.254 94.2614 118.242Z" fill="#F2A635"/>
<path d="M128 138.648C143.964 138.648 156.906 125.707 156.906 109.742C156.906 93.7777 143.964 80.8359 128 80.8359C112.036 80.8359 99.0938 93.7777 99.0938 109.742C99.0938 125.707 112.036 138.648 128 138.648Z" fill="url(#paint2_linear_50369_8)"/>
<path d="M106.516 109.742C106.516 95.0355 117.5 82.9035 131.711 81.0809C130.495 80.925 129.259 80.8355 128 80.8355C112.036 80.8355 99.0938 93.7773 99.0938 109.742C99.0938 125.706 112.036 138.648 128 138.648C129.259 138.648 130.495 138.559 131.711 138.403C117.5 136.58 106.516 124.448 106.516 109.742Z" fill="#8257E5"/>
<path d="M138.061 127.788C137.583 127.789 137.095 127.659 136.609 127.404L128.739 123.266C128.62 123.204 128.356 123.131 128 123.131C127.645 123.131 127.38 123.204 127.261 123.266L119.392 127.404C118.906 127.659 118.417 127.788 117.94 127.788C117.215 127.788 116.566 127.493 116.113 126.956C115.611 126.361 115.421 125.535 115.576 124.631L117.079 115.868C117.145 115.484 116.902 114.735 116.622 114.462L110.256 108.256C109.427 107.448 109.127 106.446 109.432 105.508C109.737 104.57 110.568 103.937 111.714 103.77L120.511 102.492C120.897 102.436 121.535 101.973 121.708 101.623L125.642 93.6504C126.154 92.6125 127.014 92.0176 128 92.0176C128.987 92.0176 129.847 92.6125 130.359 93.6504L134.293 101.623C134.466 101.973 135.103 102.436 135.489 102.492L144.287 103.77C145.432 103.937 146.264 104.57 146.569 105.508C146.874 106.446 146.574 107.448 145.745 108.256L139.379 114.462C139.099 114.734 138.856 115.484 138.922 115.868L140.424 124.631C140.579 125.535 140.389 126.361 139.887 126.956C139.434 127.493 138.786 127.788 138.061 127.788Z" fill="white"/>
<path d="M122.024 123.793L123.652 114.298C123.724 113.882 123.46 113.07 123.157 112.775L116.258 106.05C115.411 105.224 115.081 104.212 115.323 103.247L111.713 103.771C110.568 103.938 109.736 104.571 109.431 105.509C109.126 106.447 109.426 107.449 110.255 108.257L116.622 114.463C116.901 114.735 117.144 115.484 117.078 115.869L115.575 124.632C115.42 125.536 115.611 126.362 116.113 126.957C116.565 127.493 117.214 127.789 117.939 127.789C118.417 127.789 118.905 127.66 119.391 127.404L122.309 125.87C121.995 125.283 121.891 124.566 122.024 123.793Z" fill="#DADADA"/>
<path d="M178.977 62.2812C178.977 63.3555 178.098 64.2344 177.023 64.2344H78.9766C77.9023 64.2344 77.0234 63.3555 77.0234 62.2812V50.9531C77.0234 49.8789 77.9023 49 78.9766 49H177.023C178.098 49 178.977 49.8789 178.977 50.9531V62.2812Z" fill="#FFE67C"/>
<path d="M88.9375 62.2812V50.9531C88.9375 49.8789 89.8164 49 90.8906 49H78.9766C77.9023 49 77.0234 49.8789 77.0234 50.9531V62.2812C77.0234 63.3555 77.9023 64.2344 78.9766 64.2344H90.8906C89.8164 64.2344 88.9375 63.3555 88.9375 62.2812Z" fill="#FFBA30"/>
<path d="M77.6094 179.408C77.1066 179.408 76.6598 179.087 76.4992 178.611C74.2508 171.949 72.568 170.267 65.9066 168.019C65.4301 167.858 65.1094 167.411 65.1094 166.908C65.1094 166.405 65.4301 165.958 65.9063 165.798C72.5676 163.55 74.2504 161.867 76.4988 155.205C76.6598 154.729 77.1063 154.408 77.609 154.408C78.1117 154.408 78.5586 154.729 78.7191 155.205C80.9676 161.867 82.6504 163.55 89.3117 165.798C89.7879 165.959 90.109 166.405 90.109 166.908C90.109 167.411 89.7883 167.858 89.3117 168.019C82.6504 170.267 80.9676 171.949 78.7191 178.611C78.559 179.087 78.1121 179.408 77.6094 179.408Z" fill="white"/>
<path d="M183.517 167.811C183.116 167.811 182.76 167.555 182.631 167.176C180.84 161.867 179.499 160.526 174.19 158.735C173.812 158.606 173.556 158.251 173.556 157.85C173.556 157.449 173.812 157.093 174.19 156.965C179.499 155.174 180.84 153.832 182.631 148.524C182.76 148.144 183.116 147.889 183.517 147.889C183.917 147.889 184.273 148.144 184.402 148.524C186.193 153.832 187.535 155.173 192.843 156.965C193.222 157.093 193.478 157.449 193.478 157.85C193.478 158.251 193.222 158.606 192.843 158.735C187.534 160.527 186.193 161.867 184.402 167.176C184.273 167.555 183.917 167.811 183.517 167.811Z" fill="white"/>
<path d="M138.547 212.672H117.453C116.375 212.672 115.5 211.797 115.5 210.719C115.5 209.64 116.375 208.766 117.453 208.766H138.547C139.626 208.766 140.5 209.64 140.5 210.719C140.5 211.797 139.626 212.672 138.547 212.672Z" fill="white"/>
<path d="M133.859 219.703H122.141C121.062 219.703 120.188 218.829 120.188 217.75C120.188 216.671 121.062 215.797 122.141 215.797H133.859C134.938 215.797 135.812 216.671 135.812 217.75C135.812 218.829 134.938 219.703 133.859 219.703Z" fill="white"/>
<path d="M104.172 80.25C103.795 80.25 103.46 80.0094 103.339 79.6523C101.653 74.6563 100.391 73.3941 95.3945 71.7078C95.0375 71.5871 94.7969 71.252 94.7969 70.875C94.7969 70.498 95.0375 70.1629 95.3945 70.0422C100.391 68.3562 101.653 67.0937 103.339 62.0977C103.46 61.7406 103.795 61.5 104.172 61.5C104.549 61.5 104.884 61.7406 105.005 62.0977C106.691 67.0937 107.953 68.3559 112.949 70.0422C113.306 70.1629 113.547 70.498 113.547 70.875C113.547 71.252 113.306 71.5871 112.949 71.7078C107.953 73.3941 106.691 74.6563 105.005 79.6523C104.884 80.0094 104.549 80.25 104.172 80.25Z" fill="white"/>
</g>
<path d="M232.961 231.922C232.561 231.922 232.204 231.666 232.076 231.287C230.284 225.979 228.943 224.638 223.635 222.846C223.256 222.718 223 222.362 223 221.961C223 221.561 223.256 221.204 223.635 221.076C228.943 219.285 230.284 217.943 232.076 212.635C232.204 212.255 232.56 212 232.961 212C233.362 212 233.717 212.255 233.846 212.635C235.637 217.943 236.979 219.284 242.287 221.076C242.666 221.204 242.922 221.561 242.922 221.961C242.922 222.362 242.666 222.718 242.287 222.846C236.979 224.638 235.637 225.979 233.846 231.287C233.717 231.666 233.361 231.922 232.961 231.922Z" fill="url(#paint3_linear_50369_8)"/>
<path opacity="0.2" d="M240.556 81.8889C240.274 81.8889 240.024 81.7094 239.934 81.4428C238.675 77.7122 237.732 76.7698 234.002 75.5109C233.735 75.4206 233.556 75.1705 233.556 74.8889C233.556 74.6075 233.735 74.3572 234.002 74.2671C237.732 73.0082 238.675 72.0656 239.934 68.3352C240.024 68.0684 240.274 67.8889 240.556 67.8889C240.837 67.8889 241.087 68.0684 241.178 68.3352C242.437 72.0656 243.379 73.0079 247.11 74.2671C247.376 74.3572 247.556 74.6075 247.556 74.8889C247.556 75.1705 247.376 75.4206 247.11 75.5109C243.379 76.7701 242.437 77.7122 241.178 81.4428C241.087 81.7094 240.837 81.8889 240.556 81.8889Z" fill="url(#paint4_linear_50369_8)"/>
<path opacity="0.2" d="M91 21C90.7186 21 90.468 20.8205 90.378 20.5539C89.1191 16.8233 88.1764 15.8809 84.4461 14.622C84.1798 14.5317 84 14.2816 84 14C84 13.7186 84.1798 13.4683 84.4461 13.3782C88.1767 12.1193 89.1191 11.1767 90.378 7.44635C90.468 7.17953 90.7183 7 91 7C91.2816 7 91.5314 7.17953 91.622 7.44635C92.8809 11.1767 93.8236 12.1191 97.5539 13.3782C97.8202 13.4683 98 13.7186 98 14C98 14.2816 97.8202 14.5317 97.5539 14.622C93.8233 15.8812 92.8809 16.8233 91.622 20.5539C91.5314 20.8205 91.2814 21 91 21Z" fill="url(#paint5_linear_50369_8)"/>
<path opacity="0.2" d="M250.556 190.889C250.274 190.889 250.024 190.709 249.934 190.443C248.675 186.712 247.732 185.77 244.002 184.511C243.735 184.421 243.556 184.171 243.556 183.889C243.556 183.608 243.735 183.357 244.002 183.267C247.732 182.008 248.675 181.066 249.934 177.335C250.024 177.068 250.274 176.889 250.556 176.889C250.837 176.889 251.087 177.068 251.178 177.335C252.437 181.066 253.379 182.008 257.11 183.267C257.376 183.357 257.556 183.608 257.556 183.889C257.556 184.171 257.376 184.421 257.11 184.511C253.379 185.77 252.437 186.712 251.178 190.443C251.087 190.709 250.837 190.889 250.556 190.889Z" fill="url(#paint6_linear_50369_8)"/>
<path d="M213.517 47.8108C213.116 47.8108 212.76 47.5553 212.631 47.176C210.84 41.8674 209.499 40.5264 204.19 38.735C203.812 38.6065 203.556 38.2506 203.556 37.8498C203.556 37.4494 203.812 37.0932 204.19 36.9651C209.499 35.1737 210.84 33.8323 212.631 28.524C212.76 28.1444 213.116 27.8889 213.517 27.8889C213.917 27.8889 214.273 28.1444 214.402 28.524C216.193 33.8323 217.535 35.1733 222.843 36.9651C223.222 37.0932 223.478 37.4494 223.478 37.8498C223.478 38.2506 223.222 38.6065 222.843 38.735C217.534 40.5268 216.193 41.8674 214.402 47.176C214.273 47.5553 213.917 47.8108 213.517 47.8108Z" fill="url(#paint7_linear_50369_8)"/>
<path d="M36.9609 19.9219C36.5605 19.9219 36.2039 19.6664 36.0758 19.2871C34.2844 13.9785 32.943 12.6375 27.6348 10.8461C27.2559 10.7176 27 10.3617 27 9.96095C27 9.56056 27.2559 9.2043 27.6348 9.07618C32.9434 7.28477 34.2844 5.94337 36.0758 0.63516C36.2039 0.255472 36.5602 0 36.9609 0C37.3617 0 37.7172 0.255472 37.8461 0.63516C39.6375 5.94337 40.9789 7.28438 46.2871 9.07618C46.666 9.2043 46.9219 9.56056 46.9219 9.96095C46.9219 10.3617 46.666 10.7176 46.2871 10.8461C40.9785 12.6379 39.6375 13.9785 37.8461 19.2871C37.7172 19.6664 37.3613 19.9219 36.9609 19.9219Z" fill="url(#paint8_linear_50369_8)"/>
<path opacity="0.2" d="M19.5557 88.8889C19.2743 88.8889 19.0237 88.7094 18.9336 88.4428C17.6747 84.7122 16.7321 83.7698 13.0017 82.5109C12.7355 82.4206 12.5557 82.1705 12.5557 81.8889C12.5557 81.6075 12.7355 81.3572 13.0017 81.2671C16.7323 80.0082 17.6747 79.0656 18.9336 75.3352C19.0237 75.0684 19.274 74.8889 19.5557 74.8889C19.8373 74.8889 20.0871 75.0684 20.1777 75.3352C21.4366 79.0656 22.3793 80.0079 26.1096 81.2671C26.3758 81.3572 26.5556 81.6075 26.5556 81.8889C26.5556 82.1705 26.3758 82.4206 26.1096 82.5109C22.379 83.7701 21.4366 84.7122 20.1777 88.4428C20.0871 88.7094 19.837 88.8889 19.5557 88.8889Z" fill="url(#paint9_linear_50369_8)"/>
<path d="M10.5166 201.811C10.1162 201.811 9.75957 201.555 9.63145 201.176C7.84004 195.867 6.49863 194.526 1.19043 192.735C0.811523 192.606 0.555664 192.251 0.555664 191.85C0.555664 191.449 0.811523 191.093 1.19043 190.965C6.49902 189.174 7.84004 187.832 9.63145 182.524C9.75957 182.144 10.1158 181.889 10.5166 181.889C10.9174 181.889 11.2728 182.144 11.4018 182.524C13.1932 187.832 14.5346 189.173 19.8428 190.965C20.2217 191.093 20.4775 191.449 20.4775 191.85C20.4775 192.251 20.2217 192.606 19.8428 192.735C14.5342 194.527 13.1932 195.867 11.4018 201.176C11.2728 201.555 10.917 201.811 10.5166 201.811Z" fill="url(#paint10_linear_50369_8)"/>
<path opacity="0.2" d="M28.5557 238.889C28.2743 238.889 28.0237 238.709 27.9336 238.443C26.6747 234.712 25.7321 233.77 22.0017 232.511C21.7355 232.421 21.5557 232.171 21.5557 231.889C21.5557 231.608 21.7355 231.357 22.0017 231.267C25.7323 230.008 26.6747 229.066 27.9336 225.335C28.0237 225.068 28.274 224.889 28.5557 224.889C28.8373 224.889 29.0871 225.068 29.1777 225.335C30.4366 229.066 31.3793 230.008 35.1096 231.267C35.3758 231.357 35.5556 231.608 35.5556 231.889C35.5556 232.171 35.3758 232.421 35.1096 232.511C31.379 233.77 30.4366 234.712 29.1777 238.443C29.0871 238.709 28.837 238.889 28.5557 238.889Z" fill="url(#paint11_linear_50369_8)"/>
<defs>
<linearGradient id="paint0_linear_50369_8" x1="110.5" y1="57.5938" x2="110.5" y2="248.594" gradientUnits="userSpaceOnUse">
<stop stop-color="#EBEBF5"/>
<stop offset="1" stop-color="#F5F5FA" stop-opacity="0"/>
</linearGradient>
<linearGradient id="paint1_linear_50369_8" x1="101.82" y1="204.469" x2="117.876" y2="230.925" gradientUnits="userSpaceOnUse">
<stop stop-color="#57B6E5"/>
<stop offset="1" stop-color="#8257E5"/>
</linearGradient>
<linearGradient id="paint2_linear_50369_8" x1="99.0938" y1="80.8359" x2="145.85" y2="110.723" gradientUnits="userSpaceOnUse">
<stop stop-color="#57B6E5"/>
<stop offset="1" stop-color="#8257E5"/>
</linearGradient>
<linearGradient id="paint3_linear_50369_8" x1="223" y1="212" x2="239.112" y2="222.299" gradientUnits="userSpaceOnUse">
<stop stop-color="#57B6E5"/>
<stop offset="1" stop-color="#8257E5"/>
</linearGradient>
<linearGradient id="paint4_linear_50369_8" x1="233.556" y1="67.8889" x2="244.878" y2="75.1263" gradientUnits="userSpaceOnUse">
<stop stop-color="#57B6E5"/>
<stop offset="1" stop-color="#8257E5"/>
</linearGradient>
<linearGradient id="paint5_linear_50369_8" x1="84" y1="7" x2="95.3226" y2="14.2375" gradientUnits="userSpaceOnUse">
<stop stop-color="#57B6E5"/>
<stop offset="1" stop-color="#8257E5"/>
</linearGradient>
<linearGradient id="paint6_linear_50369_8" x1="243.556" y1="176.889" x2="254.878" y2="184.126" gradientUnits="userSpaceOnUse">
<stop stop-color="#57B6E5"/>
<stop offset="1" stop-color="#8257E5"/>
</linearGradient>
<linearGradient id="paint7_linear_50369_8" x1="203.556" y1="27.8889" x2="219.668" y2="38.1877" gradientUnits="userSpaceOnUse">
<stop stop-color="#57B6E5"/>
<stop offset="1" stop-color="#8257E5"/>
</linearGradient>
<linearGradient id="paint8_linear_50369_8" x1="27" y1="0" x2="43.112" y2="10.2988" gradientUnits="userSpaceOnUse">
<stop stop-color="#57B6E5"/>
<stop offset="1" stop-color="#8257E5"/>
</linearGradient>
<linearGradient id="paint9_linear_50369_8" x1="12.5557" y1="74.8889" x2="23.8783" y2="82.1263" gradientUnits="userSpaceOnUse">
<stop stop-color="#57B6E5"/>
<stop offset="1" stop-color="#8257E5"/>
</linearGradient>
<linearGradient id="paint10_linear_50369_8" x1="0.555664" y1="181.889" x2="16.6677" y2="192.188" gradientUnits="userSpaceOnUse">
<stop stop-color="#57B6E5"/>
<stop offset="1" stop-color="#8257E5"/>
</linearGradient>
<linearGradient id="paint11_linear_50369_8" x1="21.5557" y1="224.889" x2="32.8783" y2="232.126" gradientUnits="userSpaceOnUse">
<stop stop-color="#57B6E5"/>
<stop offset="1" stop-color="#8257E5"/>
</linearGradient>
<clipPath id="clip0_50369_8">
<rect width="200" height="200" fill="white" transform="translate(28 49)"/>
</clipPath>
</defs>
</svg>
