<svg width="375" height="500" viewBox="0 0 375 500" fill="none" xmlns="http://www.w3.org/2000/svg">
<path d="M-28.0186 304.904C-28.0186 304.904 116.368 412.159 219.912 234.842C323.457 57.5258 466.768 307.274 466.768 307.274" stroke="#FF7D3B" stroke-opacity="0.7" stroke-width="2"/>
<path opacity="0.256557" d="M-21.9922 370C-21.9922 370 68.1406 447 169.57 241.5C271 36 499 255 499 255" stroke="white" stroke-opacity="0.7" stroke-width="2"/>
<rect x="249.846" y="5.37967" width="47.455" height="10.7593" transform="rotate(30.4707 249.846 5.37967)" fill="#3B1F7C"/>
<ellipse cx="179.262" cy="413.183" rx="32.278" ry="57.3832" transform="rotate(22.0105 179.262 413.183)" fill="#3B1F7C"/>
<path d="M123.348 220.567L83 195.701L140.383 163.183L178.041 189.006L123.348 220.567Z" fill="#3B1F7C"/>
<path d="M192.965 370.323L151.127 347.207L208.143 312.846L247.287 337.01L192.965 370.323Z" fill="#3B1F7C"/>
<path d="M122.772 73.9366L108.105 95.9375C100.347 112.052 93.8677 128.751 88.7286 145.881L88.3797 147.044L83.8966 173.046L83.0716 196.148C83.0393 197.051 83.9852 197.659 84.7932 197.255L136.616 167.769C136.735 167.702 136.868 167.667 137.004 167.667C137.398 167.667 137.731 167.374 137.782 166.983L140.166 148.711C140.311 147.602 140.541 146.505 140.854 145.431L142.758 138.901C145.344 130.036 149.265 121.617 154.388 113.933L158.249 108.141C163.598 100.118 170.756 93.4607 179.146 88.7064L185.36 85.1851C190.553 82.2421 196.421 80.6951 202.391 80.6951H208.526C212.018 80.6951 215.416 81.8277 218.209 83.9229C222.273 86.9708 224.665 91.7543 224.665 96.8341V110.958C224.665 116.438 223.65 121.871 221.672 126.982L217.144 138.679C214.988 144.247 212.389 149.633 209.372 154.785L195.071 179.201C183.141 199.569 172.945 220.905 164.592 242.982C158.048 260.828 154.017 279.496 152.613 298.452L151.143 318.297V346.681C151.143 347.125 151.68 347.348 151.994 347.034C152.024 347.004 152.057 346.978 152.094 346.957L206.49 314.854C206.651 314.759 206.799 314.644 206.931 314.512C207.375 314.068 207.61 313.456 207.577 312.829L206.732 296.779C207.329 285.446 208.969 274.192 211.632 263.16L213.905 253.741C221.061 232.872 230.264 212.761 241.381 193.704L256.046 168.563L267.387 141.346C271.77 130.825 275.104 119.897 277.34 108.72L278.81 101.368C280.958 90.6261 281.614 79.6394 280.757 68.7186L279.8 56.5117C278.921 45.3058 275.332 34.4812 269.343 24.9693L267.334 21.7774C264.609 17.4502 261.191 13.6008 257.217 10.3835L255.675 9.13536C248.374 3.22486 239.265 0 229.871 0C226.414 0 222.971 0.437122 219.623 1.30097L212.465 3.14842C202.136 5.81397 192.304 10.1273 183.348 15.9224L175.885 20.7513C169.56 24.8438 163.544 29.3949 157.885 34.3678L155.788 36.2106C143.182 47.2892 132.082 59.9726 122.772 73.9366Z" fill="#3B1F7C"/>
<path d="M164.017 97.2485L149.349 119.249C141.591 135.363 135.112 152.063 129.973 169.193L129.624 170.356L125.141 196.358L124.316 219.46C124.283 220.362 125.229 220.971 126.037 220.567L177.86 191.081C177.979 191.014 178.112 190.978 178.248 190.978C178.643 190.978 178.976 190.686 179.027 190.295L181.41 172.023C181.555 170.913 181.785 169.817 182.098 168.743L184.003 162.212C186.588 153.348 190.51 144.929 195.632 137.245L199.493 131.453C204.842 123.429 212 116.773 220.39 112.018L226.604 108.497C231.798 105.554 237.665 104.007 243.635 104.007H249.77C253.262 104.007 256.66 105.14 259.453 107.235C263.517 110.283 265.909 115.066 265.909 120.146V134.27C265.909 139.75 264.894 145.183 262.916 150.294L258.388 161.99C256.232 167.559 253.633 172.945 250.616 178.097L236.315 202.513C224.385 222.881 214.189 244.217 205.836 266.294C199.292 284.139 195.261 302.808 193.857 321.763L192.387 341.609V369.993C192.387 370.437 192.924 370.66 193.239 370.346C193.268 370.316 193.302 370.29 193.338 370.269L247.735 338.166C247.895 338.071 248.043 337.956 248.175 337.824C248.62 337.38 248.854 336.768 248.821 336.141L247.977 320.091C248.573 308.758 250.213 297.504 252.876 286.472L255.15 277.053C262.305 256.183 271.508 236.073 282.625 217.016L297.29 191.875L308.631 164.658C313.015 154.137 316.348 143.208 318.584 132.032L320.054 124.68C322.202 113.938 322.858 102.951 322.001 92.0305L321.044 79.8236C320.165 68.6177 316.577 57.7931 310.588 48.2812L308.578 45.0893C305.853 40.7621 302.435 36.9128 298.461 33.6954L296.919 32.4473C289.618 26.5368 280.509 23.3119 271.115 23.3119C267.658 23.3119 264.215 23.749 260.868 24.6129L253.709 26.4603C243.38 29.1259 233.548 33.4392 224.592 39.2343L217.129 44.0632C210.804 48.1557 204.788 52.7068 199.129 57.6797L197.032 59.5226C184.426 70.6011 173.326 83.2845 164.017 97.2485Z" fill="#8257E5"/>
<path d="M207.21 364.494L241.139 381.719L195.077 486.86L155.878 465.6L207.21 364.494Z" fill="#3B1F7C"/>
<ellipse cx="218.713" cy="434.702" rx="32.278" ry="57.3832" transform="rotate(22.0105 218.713 434.702)" fill="#8257E5"/>
</svg>
