<svg width="126" height="83" viewBox="0 0 126 83" fill="none" xmlns="http://www.w3.org/2000/svg">
<path d="M60.2246 28.7812L67.3613 34.4414L63.5293 37.6758L56.5156 32.0156L60.2246 28.7812ZM67.6602 19.6934V20.7305C67.6602 22.6875 67.3848 24.4453 66.834 26.0039C66.2949 27.5508 65.5215 28.875 64.5137 29.9766C63.5176 31.0664 62.3398 31.9043 60.9805 32.4902C59.6211 33.0645 58.1211 33.3516 56.4805 33.3516C54.8281 33.3516 53.3164 33.0645 51.9453 32.4902C50.5859 31.9043 49.4023 31.0664 48.3945 29.9766C47.3984 28.875 46.625 27.5508 46.0742 26.0039C45.5352 24.4453 45.2656 22.6875 45.2656 20.7305V19.6934C45.2656 17.7363 45.5352 15.9785 46.0742 14.4199C46.625 12.8613 47.3926 11.5371 48.377 10.4473C49.373 9.3457 50.5508 8.50781 51.9102 7.93359C53.2812 7.34766 54.793 7.05469 56.4453 7.05469C58.0859 7.05469 59.5859 7.34766 60.9453 7.93359C62.3164 8.50781 63.5 9.3457 64.4961 10.4473C65.5039 11.5371 66.2832 12.8613 66.834 14.4199C67.3848 15.9785 67.6602 17.7363 67.6602 19.6934ZM61.3848 20.7305V19.6582C61.3848 18.3926 61.2734 17.2793 61.0508 16.3184C60.8398 15.3457 60.5234 14.5312 60.1016 13.875C59.6797 13.2188 59.1582 12.7266 58.5371 12.3984C57.9277 12.0586 57.2305 11.8887 56.4453 11.8887C55.625 11.8887 54.9102 12.0586 54.3008 12.3984C53.6914 12.7266 53.1816 13.2188 52.7715 13.875C52.3613 14.5312 52.0508 15.3457 51.8398 16.3184C51.6406 17.2793 51.541 18.3926 51.541 19.6582V20.7305C51.541 21.9844 51.6406 23.0977 51.8398 24.0703C52.0508 25.0312 52.3613 25.8457 52.7715 26.5137C53.1934 27.1816 53.709 27.6855 54.3184 28.0254C54.9395 28.3652 55.6602 28.5352 56.4805 28.5352C57.2656 28.5352 57.9629 28.3652 58.5723 28.0254C59.1816 27.6855 59.6914 27.1816 60.1016 26.5137C60.5234 25.8457 60.8398 25.0312 61.0508 24.0703C61.2734 23.0977 61.3848 21.9844 61.3848 20.7305ZM84.6934 7.40625H90.8633V24.123C90.8633 26.1152 90.4473 27.8027 89.6152 29.1855C88.7832 30.5566 87.6172 31.5938 86.1172 32.2969C84.6172 33 82.8535 33.3516 80.8262 33.3516C78.8223 33.3516 77.0586 33 75.5352 32.2969C74.0234 31.5938 72.8398 30.5566 71.9844 29.1855C71.1406 27.8027 70.7188 26.1152 70.7188 24.123V7.40625H76.9062V24.123C76.9062 25.1777 77.0586 26.0391 77.3633 26.707C77.668 27.3633 78.1133 27.8438 78.6992 28.1484C79.2852 28.4531 79.9941 28.6055 80.8262 28.6055C81.6699 28.6055 82.3789 28.4531 82.9531 28.1484C83.5273 27.8438 83.9609 27.3633 84.2539 26.707C84.5469 26.0391 84.6934 25.1777 84.6934 24.123V7.40625ZM101.305 7.40625V33H95.1523V7.40625H101.305ZM124.807 28.2539V33H106.279V28.2539H124.807ZM124.684 10.5703L109.338 33H104.873V29.748L120.395 7.40625H124.684V10.5703ZM122.697 7.40625V12.1699H104.785V7.40625H122.697Z" fill="white"/>
<path d="M29 29.5964L33.119 43.1475L33.6579 44.9205H35.5109H49.2859L38.0014 53.6846L36.6426 54.7399L37.1429 56.3861L41.3659 70.2795L30.5335 61.8665L29 60.6755L27.4665 61.8665L16.6341 70.2795L20.8571 56.3861L21.3574 54.7399L19.9986 53.6846L8.71406 44.9205H22.4891H24.3421L24.881 43.1475L29 29.5964Z" fill="white" stroke="white" stroke-width="5"/>
</svg>
